<svg width="1121" height="400" viewBox="0 0 1121 400" fill="none" xmlns="http://www.w3.org/2000/svg">
<rect width="1120" height="400" fill="#58C0A7"/>
<path d="M1.5 250.5C64 195.5 232.8 243.1 236 399.5H1.5V250.5Z" fill="#66C5AD"/>
<path d="M884 0C838 65.5 818.5 256.5 1121 245V0H884Z" fill="#66C5AD"/>
<path d="M0 47.5C10.6667 52.5 37.8 61 61 55C90 47.5 106.5 34.5 138 42.5C169.5 50.5 179 63 200.5 64.5C222 66 273 43 323 43C362.753 43 355 48.5 388 50.5C414.4 52.1 441 18.1667 451 1H0V47.5Z" fill="#66C5AD"/>
<path d="M551.5 400C557.667 366.5 590.4 309.9 672 351.5C747 378.5 735.26 340.565 792.5 343.5C828 345.321 827.5 364.5 860.5 373.5C876.5 377.864 907.5 388.5 941 383.5C974.5 378.5 1008.5 384 1027.5 399L551.5 400Z" fill="#66C5AD"/>
</svg>
